<?xml version="1.0" encoding="UTF-8" standalone="no"?>
<svg width="1374px" height="150px" viewBox="0 0 1374 150" version="1.1" xmlns="http://www.w3.org/2000/svg" xmlns:xlink="http://www.w3.org/1999/xlink" xmlns:sketch="http://www.bohemiancoding.com/sketch/ns">
    <!-- Generator: Sketch 3.3.2 (12043) - http://www.bohemiancoding.com/sketch -->
    <title>Github Releases + Oval + Shape + Shape</title>
    <desc>Created with Sketch.</desc>
    <defs></defs>
    <g id="Page-1" stroke="none" stroke-width="1" fill="none" fill-rule="evenodd" sketch:type="MSPage">
        <g id="Github-Releases-+-Oval-+-Shape-+-Shape" sketch:type="MSLayerGroup" transform="translate(4.000000, 1.000000)">
            <g id="Oval-+-Shape-+-Shape" transform="translate(0.000000, 13.000000)" stroke="#F59923" stroke-width="7" fill="#F69923" sketch:type="MSShapeGroup" stroke-linejoin="round">
                <circle id="Oval" cx="17.8285714" cy="112.171429" r="17.8285714"></circle>
                <path d="M86.1714286,130 L60.9142857,130 C60.9142857,96.357969 33.642031,69.0857143 -7.10542736e-15,69.0857143 L-7.10542736e-15,43.8285714 C47.5911659,43.8285714 86.1714286,82.4088341 86.1714286,130 L86.1714286,130 Z" id="Shape"></path>
                <path d="M104,130 C104,72.562386 57.437614,26 0,26 L0,0 C71.7970175,1.58349524e-14 130,58.2029825 130,130 L104,130 Z" id="Shape"></path>
            </g>
            <path d="M263.6875,101.078125 L237.417969,101.078125 C234.423162,101.078125 232.567712,100.752607 231.851562,100.101562 C230.809891,99.2552041 230.289062,98.1809961 230.289062,96.8789062 C230.289062,96.3580703 230.41927,95.2187588 230.679688,93.4609375 L231.949219,83.109375 C232.339846,80.1145684 232.909501,78.275394 233.658203,77.5917969 C234.406905,76.9081997 236.311183,76.5664062 239.371094,76.5664062 L289.566406,76.5664062 C292.431004,76.5664062 294.319006,76.8756479 295.230469,77.4941406 C296.141932,78.1126333 296.597656,79.4635312 296.597656,81.546875 C296.597656,93.5912061 293.863309,105.016873 288.394531,115.824219 C282.795545,126.891982 274.55995,135.322888 263.6875,141.117188 C254.182244,146.130233 243.895889,148.636719 232.828125,148.636719 C221.239525,148.636719 210.367238,145.869819 200.210938,140.335938 C188.882756,134.151011 180.647161,125.134174 175.503906,113.285156 C171.727846,104.561154 169.839844,94.925834 169.839844,84.3789062 C169.839844,70.186127 173.062468,57.1328721 179.507812,45.21875 C186.213575,32.914001 195.718688,23.6693018 208.023438,17.484375 C217.724007,12.5364336 228.205673,10.0625 239.46875,10.0625 C249.299528,10.0625 258.348917,11.9830537 266.617188,15.8242188 C274.885458,19.6653838 281.721327,25.1015273 287.125,32.1328125 C289.924493,35.8437686 291.324219,38.4804609 291.324219,40.0429688 C291.324219,41.0846406 291.047529,41.9147104 290.494141,42.5332031 C289.940752,43.1516958 288.68751,44.0143174 286.734375,45.1210938 L275.894531,51.2734375 C273.615874,52.5755273 272.085941,53.2265625 271.304688,53.2265625 C270.32812,53.2265625 269.481774,52.9010449 268.765625,52.25 C268.049476,51.5989551 266.031267,49.320332 262.710938,45.4140625 C260.627594,42.8749873 257.372418,40.7753989 252.945312,39.1152344 C248.518207,37.4550698 244.026064,36.625 239.46875,36.625 C226.70827,36.625 216.519569,41.735626 208.902344,51.9570312 C202.001268,61.2018691 198.550781,71.7811904 198.550781,83.6953125 C198.550781,94.1771357 201.447888,102.933559 207.242188,109.964844 C213.882846,118.037801 222.867131,122.074219 234.195312,122.074219 C242.203165,122.074219 248.697241,120.283872 253.677734,116.703125 C258.658228,113.122378 261.994783,107.914097 263.6875,101.078125 L263.6875,101.078125 Z M334.79375,72.8554688 L326.590625,139.457031 C326.199998,142.451838 325.630342,144.291012 324.88164,144.974609 C324.132939,145.658207 322.228661,146 319.16875,146 L308.914844,146 C305.985141,146 304.162243,145.674482 303.446094,145.023438 C302.404422,144.177079 301.883594,143.102871 301.883594,141.800781 C301.883594,141.214841 301.981249,140.075529 302.176562,138.382812 L310.379687,71.78125 C310.770314,68.7864434 311.356246,66.947269 312.1375,66.2636719 C312.918754,65.5800747 314.806756,65.2382812 317.801562,65.2382812 L328.055469,65.2382812 C331.050275,65.2382812 332.905725,65.5637988 333.621875,66.2148438 C334.663547,67.0612021 335.184375,68.1354102 335.184375,69.4375 C335.184375,69.9583359 335.054168,71.0976475 334.79375,72.8554688 L334.79375,72.8554688 Z M327.371875,20.1210938 C331.343249,20.1210938 334.744908,21.569647 337.576953,24.4667969 C340.408998,27.3639468 341.825,30.7981572 341.825,34.7695312 C341.825,38.8060098 340.392722,42.2564961 337.528125,45.1210938 C334.663527,47.9856914 331.213041,49.4179688 327.176562,49.4179688 C323.074979,49.4179688 319.608217,47.9856914 316.776172,45.1210938 C313.944126,42.2564961 312.528125,38.773458 312.528125,34.671875 C312.528125,30.6353965 313.976678,27.201186 316.873828,24.3691406 C319.770978,21.5370952 323.270292,20.1210938 327.371875,20.1210938 L327.371875,20.1210938 Z M352.238281,83.9882812 L349.601562,83.9882812 C346.67186,83.9882812 344.848962,83.6953154 344.132812,83.109375 C343.091141,82.1979121 342.570312,81.0911523 342.570312,79.7890625 C342.570312,79.2031221 342.667968,78.0638105 342.863281,76.3710938 L343.449219,71.78125 C343.839846,68.7864434 344.425777,66.947269 345.207031,66.2636719 C345.988285,65.5800747 347.876287,65.2382812 350.871094,65.2382812 L354.582031,65.2382812 L357.121094,44.4375 C357.446616,41.4426934 357.999996,39.603519 358.78125,38.9199219 C359.562504,38.2363247 361.483058,37.8945312 364.542969,37.8945312 L374.796875,37.8945312 C377.726577,37.8945312 379.549476,38.2200488 380.265625,38.8710938 C381.307297,39.7174521 381.828125,40.7916602 381.828125,42.09375 C381.828125,42.6145859 381.73047,43.7538975 381.535156,45.5117188 L379.09375,65.2382812 L382.316406,65.2382812 C385.311213,65.2382812 387.166663,65.5637988 387.882812,66.2148438 C388.924484,67.0612021 389.445312,68.1354102 389.445312,69.4375 C389.445312,69.9583359 389.315105,71.0976475 389.054688,72.8554688 L388.46875,77.4453125 C388.078123,80.4401191 387.508467,82.2792935 386.759766,82.9628906 C386.011064,83.6464878 384.106786,83.9882812 381.046875,83.9882812 L376.75,83.9882812 L369.914062,139.457031 C369.523436,142.451838 368.95378,144.291012 368.205078,144.974609 C367.456376,145.658207 365.552099,146 362.492188,146 L352.238281,146 C349.308579,146 347.485681,145.674482 346.769531,145.023438 C345.727859,144.177079 345.207031,143.102871 345.207031,141.800781 C345.207031,141.084632 345.304687,139.94532 345.5,138.382812 L352.238281,83.9882812 Z M423.39375,75.6875 C428.537005,70.9999766 432.573423,67.8750078 435.503125,66.3125 C440.06044,63.7734248 444.975755,62.5039062 450.249219,62.5039062 C457.671131,62.5039062 463.465344,64.3756323 467.632031,68.1191406 C471.798719,71.8626489 473.882031,77.0872061 473.882031,83.7929688 C473.882031,86.5924619 473.686721,89.6848789 473.296094,93.0703125 L467.534375,139.457031 C467.143748,142.451838 466.557817,144.291012 465.776563,144.974609 C464.995309,145.658207 463.107307,146 460.1125,146 L449.858594,146 C447.059101,146 445.187375,145.707034 444.24336,145.121094 C443.299344,144.535153 442.827344,143.395842 442.827344,141.703125 C442.827344,141.05208 442.924999,139.94532 443.120313,138.382812 L447.221875,105.472656 C447.87292,100.199192 448.198438,96.488292 448.198438,94.3398438 C448.198438,87.8293945 444.552641,84.5742188 437.260938,84.5742188 C430.620279,84.5742188 425.802619,87.634084 422.807813,93.7539062 C421.375514,96.6185039 420.171099,102.054647 419.194531,110.0625 L415.483594,139.457031 C415.158071,142.451838 414.604692,144.291012 413.823438,144.974609 C413.042184,145.658207 411.12163,146 408.061719,146 L397.807813,146 C394.878111,146 393.055212,145.674482 392.339063,145.023438 C391.297391,144.177079 390.776563,143.102871 390.776563,141.800781 C390.776563,141.214841 390.874218,140.075529 391.069531,138.382812 L407.378125,6.7421875 C407.703648,3.74738086 408.257028,1.90820654 409.038281,1.22460938 C409.819535,0.541012207 411.740089,0.19921875 414.8,0.19921875 L424.95625,0.19921875 C427.951057,0.19921875 429.806507,0.524736328 430.522656,1.17578125 C431.564328,2.02213965 432.085156,3.09634766 432.085156,4.3984375 C432.085156,4.91927344 431.954949,6.05858496 431.694531,7.81640625 L423.39375,75.6875 Z M497.101562,65.2382812 L507.355469,65.2382812 C510.350275,65.2382812 512.205726,65.5637988 512.921875,66.2148438 C513.963547,67.0612021 514.484375,68.1354102 514.484375,69.4375 C514.484375,69.9583359 514.354168,71.0976475 514.09375,72.8554688 L509.796875,108.304688 C509.406248,111.23439 509.210938,113.382806 509.210938,114.75 C509.210938,118.460956 510.122387,121.260407 511.945312,123.148438 C514.679701,125.947931 518.35805,127.347656 522.980469,127.347656 C527.92841,127.347656 531.557931,125.850275 533.869141,122.855469 C536.18035,119.860662 537.791662,114.522174 538.703125,106.839844 L543.097656,71.78125 C543.423179,68.7864434 543.976559,66.947269 544.757812,66.2636719 C545.539066,65.5800747 547.45962,65.2382812 550.519531,65.2382812 L560.773438,65.2382812 C563.70314,65.2382812 565.526038,65.5637988 566.242188,66.2148438 C567.283859,67.0612021 567.804688,68.1354102 567.804688,69.4375 C567.804688,69.8932314 567.707032,71.032543 567.511719,72.8554688 L563.214844,107.425781 C561.587231,120.837307 558.722677,130.212213 554.621094,135.550781 C551.170556,140.108096 546.971379,143.395823 542.023438,145.414062 C536.684869,147.562511 530.011759,148.636719 522.003906,148.636719 C509.178321,148.636719 499.445346,145.414095 492.804688,138.96875 C487.466119,133.760391 484.796875,126.436245 484.796875,116.996094 C484.796875,113.545556 485.057289,109.606793 485.578125,105.179688 L489.679688,71.78125 C490.070314,68.7864434 490.656246,66.947269 491.4375,66.2636719 C492.218754,65.5800747 494.106756,65.2382812 497.101562,65.2382812 L497.101562,65.2382812 Z M608.979688,77.7382812 C613.992734,72.0741904 618.54998,68.1354277 622.651563,65.921875 C626.753146,63.7083223 631.440599,62.6015625 636.714063,62.6015625 C647.130781,62.6015625 655.268721,66.6379805 661.128125,74.7109375 C666.141171,81.5469092 668.647656,90.3684355 668.647656,101.175781 C668.647656,115.628979 664.546135,127.347611 656.342969,136.332031 C648.855952,144.535197 639.54615,148.636719 628.413281,148.636719 C622.814295,148.636719 618.029187,147.578787 614.057813,145.462891 C610.086439,143.346995 606.082572,139.717474 602.046094,134.574219 L601.3625,139.457031 C601.036978,142.451838 600.483598,144.291012 599.702344,144.974609 C598.92109,145.658207 597.000536,146 593.940625,146 L583.686719,146 C580.757017,146 578.934118,145.674482 578.217969,145.023438 C577.176297,144.177079 576.655469,143.102871 576.655469,141.800781 C576.655469,141.214841 576.753124,140.075529 576.948438,138.382812 L593.257031,6.7421875 C593.582554,3.74738086 594.135934,1.90820654 594.917188,1.22460938 C595.698442,0.541012207 597.618995,0.19921875 600.678906,0.19921875 L610.835156,0.19921875 C613.829963,0.19921875 615.685413,0.524736328 616.401563,1.17578125 C617.443235,2.02213965 617.964063,3.09634766 617.964063,4.3984375 C617.964063,4.98437793 617.833856,6.12368945 617.573438,7.81640625 L608.979688,77.7382812 Z M625.288281,83.7929688 C618.712728,83.7929688 613.504446,86.4296611 609.663281,91.703125 C606.082534,96.7161709 604.292188,102.608039 604.292188,109.378906 C604.292188,114.457057 605.62681,118.78644 608.296094,122.367188 C611.356005,126.468771 615.587734,128.519531 620.991406,128.519531 C626.98102,128.519531 632.059094,125.915391 636.225781,120.707031 C640.132051,115.75909 642.085156,109.83467 642.085156,102.933594 C642.085156,97.3346074 640.652879,92.7773613 637.788281,89.2617188 C634.858579,85.6158672 630.691954,83.7929688 625.288281,83.7929688 L625.288281,83.7929688 Z M787.716407,89.4570312 L816.036719,137.113281 C817.403914,139.457043 818.087501,141.084631 818.087501,141.996094 C818.087501,143.493497 817.566672,144.535153 816.525001,145.121094 C815.483329,145.707034 813.627879,146 810.958594,146 L795.626563,146 C792.892174,146 791.215759,145.820965 790.597266,145.462891 C789.978774,145.104816 788.985945,143.78647 787.618751,141.507812 L757.540626,90.7265625 L751.485938,139.457031 C751.095311,142.451838 750.525655,144.291012 749.776954,144.974609 C749.028252,145.658207 747.123974,146 744.064063,146 L731.661719,146 C728.732017,146 726.909119,145.674482 726.192969,145.023438 C725.151297,144.177079 724.630469,143.102871 724.630469,141.800781 C724.630469,141.214841 724.728125,140.075529 724.923438,138.382812 L739.669532,19.2421875 C740.060159,16.2473809 740.629815,14.4082065 741.378516,13.7246094 C742.127218,13.0410122 744.031496,12.6992188 747.091407,12.6992188 L773.067969,12.6992188 C781.271135,12.6992188 787.84659,13.1712192 792.794532,14.1152344 C797.742473,15.0592495 802.104409,16.6705615 805.880469,18.9492188 C815.255516,24.6133096 819.942969,34.4764922 819.942969,48.5390625 C819.942969,62.2761104 815.51593,73.0832939 806.661719,80.9609375 C801.974196,85.127625 795.659155,87.9596279 787.716407,89.4570312 L787.716407,89.4570312 Z M764.083594,37.2109375 L759.689063,72.953125 L767.989844,72.953125 C775.151338,72.953125 780.424723,71.7161582 783.810157,69.2421875 C788.758098,65.6614404 791.232032,59.8997793 791.232032,51.9570312 C791.232032,46.5533584 789.89741,42.7448027 787.228126,40.53125 C784.558841,38.3176973 779.969044,37.2109375 773.458594,37.2109375 L764.083594,37.2109375 Z M847.778126,111.039062 C848.429171,115.856795 849.601034,119.307281 851.293751,121.390625 C854.483871,125.427104 859.334083,127.445312 865.844532,127.445312 C869.946115,127.445312 874.242947,126.045587 878.735157,123.246094 C879.64662,122.660153 880.525517,122.367188 881.371876,122.367188 C881.827607,122.367188 883.194781,122.822912 885.473438,123.734375 L894.067188,127.152344 C896.345845,127.998702 897.810675,128.731117 898.46172,129.349609 C899.112764,129.968102 899.438282,130.895827 899.438282,132.132812 C899.438282,133.69532 898.233867,135.648426 895.825001,137.992188 C888.207775,145.088577 878.019075,148.636719 865.258595,148.636719 C852.237696,148.636719 841.983892,144.76306 834.496876,137.015625 C827.270277,129.593713 823.657032,119.860737 823.657032,107.816406 C823.657032,94.0793584 828.149175,82.979209 837.133595,74.515625 C845.597178,66.572877 856.046293,62.6015625 868.481251,62.6015625 C880.525582,62.6015625 889.981867,66.2473594 896.850391,73.5390625 C903.718915,80.8307656 907.153126,90.9218105 907.153126,103.8125 C907.153126,107.067725 906.762505,109.085934 905.981251,109.867188 C905.199997,110.648441 903.181788,111.039062 899.926563,111.039062 L847.778126,111.039062 Z M885.082813,94.5351562 C884.041141,85.4205273 879.060722,80.8632812 870.141407,80.8632812 C865.388779,80.8632812 861.287258,82.0514204 857.83672,84.4277344 C854.386181,86.8040483 851.847144,90.1731553 850.219532,94.5351562 L885.082813,94.5351562 Z M915.222657,138.382812 L931.531251,6.7421875 C931.921878,3.74738086 932.491534,1.90820654 933.240235,1.22460938 C933.988937,0.541012207 935.893215,0.19921875 938.953126,0.19921875 L949.109376,0.19921875 C952.104183,0.19921875 953.959633,0.524736328 954.675782,1.17578125 C955.717454,2.02213965 956.238282,3.09634766 956.238282,4.3984375 C956.238282,4.98437793 956.108075,6.12368945 955.847657,7.81640625 L939.734376,139.457031 C939.343749,142.451838 938.757817,144.291012 937.976563,144.974609 C937.19531,145.658207 935.274756,146 932.214845,146 L921.960938,146 C919.031236,146 917.208338,145.674482 916.492188,145.023438 C915.450517,144.177079 914.929688,143.102871 914.929688,141.800781 C914.929688,141.214841 915.027344,140.075529 915.222657,138.382812 L915.222657,138.382812 Z M980.616407,111.039062 C981.267452,115.856795 982.439316,119.307281 984.132032,121.390625 C987.322153,125.427104 992.172364,127.445312 998.682814,127.445312 C1002.7844,127.445312 1007.08123,126.045587 1011.57344,123.246094 C1012.4849,122.660153 1013.3638,122.367188 1014.21016,122.367188 C1014.66589,122.367188 1016.03306,122.822912 1018.31172,123.734375 L1026.90547,127.152344 C1029.18413,127.998702 1030.64896,128.731117 1031.3,129.349609 C1031.95105,129.968102 1032.27656,130.895827 1032.27656,132.132812 C1032.27656,133.69532 1031.07215,135.648426 1028.66328,137.992188 C1021.04606,145.088577 1010.85736,148.636719 998.096876,148.636719 C985.075978,148.636719 974.822174,144.76306 967.335157,137.015625 C960.108559,129.593713 956.495314,119.860737 956.495314,107.816406 C956.495314,94.0793584 960.987456,82.979209 969.971876,74.515625 C978.43546,66.572877 988.884574,62.6015625 1001.31953,62.6015625 C1013.36386,62.6015625 1022.82015,66.2473594 1029.68867,73.5390625 C1036.5572,80.8307656 1039.99141,90.9218105 1039.99141,103.8125 C1039.99141,107.067725 1039.60079,109.085934 1038.81953,109.867188 C1038.03828,110.648441 1036.02007,111.039062 1032.76484,111.039062 L980.616407,111.039062 Z M1017.92109,94.5351562 C1016.87942,85.4205273 1011.899,80.8632812 1002.97969,80.8632812 C998.227061,80.8632812 994.125539,82.0514204 990.675001,84.4277344 C987.224463,86.8040483 984.685426,90.1731553 983.057814,94.5351562 L1017.92109,94.5351562 Z M1108.21719,134.574219 C1104.11561,139.001324 1100.56746,142.093741 1097.57266,143.851562 C1092.23409,147.041683 1086.47243,148.636719 1080.2875,148.636719 C1070.78225,148.636719 1062.93727,145.251336 1056.75235,138.480469 C1050.63252,131.709602 1047.57266,122.530006 1047.57266,110.941406 C1047.57266,97.3996719 1051.31611,85.9740049 1058.80313,76.6640625 C1066.42035,67.2239111 1076.25098,62.5039062 1088.29531,62.5039062 C1094.02451,62.5039062 1098.80962,63.5455625 1102.65078,65.6289062 C1106.49195,67.71225 1110.65857,71.4557021 1115.15078,76.859375 L1115.73672,71.78125 C1116.12735,68.7864434 1116.71328,66.947269 1117.49453,66.2636719 C1118.27579,65.5800747 1120.16379,65.2382812 1123.1586,65.2382812 L1133.21719,65.2382812 C1136.14689,65.2382812 1137.96979,65.5637988 1138.68594,66.2148438 C1139.72761,67.0612021 1140.24844,68.1354102 1140.24844,69.4375 C1140.24844,69.8932314 1140.15078,71.032543 1139.95547,72.8554688 L1131.65469,139.457031 C1131.32917,142.451838 1130.77579,144.291012 1129.99453,144.974609 C1129.21328,145.658207 1127.29272,146 1124.23281,146 L1113.97891,146 C1111.30962,146 1109.47045,145.707034 1108.46133,145.121094 C1107.45221,144.535153 1106.94766,143.460945 1106.94766,141.898438 C1106.94766,141.247393 1107.14297,139.977874 1107.5336,138.089844 L1108.21719,134.574219 Z M1095.61953,82.1328125 C1088.78356,82.1328125 1083.34742,85.0624707 1079.31094,90.921875 C1075.92551,95.8047119 1074.23281,101.533821 1074.23281,108.109375 C1074.23281,113.578152 1075.69764,118.005191 1078.62735,121.390625 C1081.75236,125.101581 1085.98409,126.957031 1091.32266,126.957031 C1097.50758,126.957031 1102.58566,124.385442 1106.55703,119.242188 C1110.26799,114.359351 1112.12344,108.434931 1112.12344,101.46875 C1112.12344,95.2838232 1110.56095,90.4987148 1107.43594,87.1132812 C1104.37603,83.7929521 1100.43727,82.1328125 1095.61953,82.1328125 L1095.61953,82.1328125 Z M1146.16953,134.378906 L1147.92735,128.714844 C1148.64349,126.436187 1149.31081,124.92253 1149.9293,124.173828 C1150.54779,123.425126 1151.47552,123.050781 1152.7125,123.050781 C1153.49376,123.050781 1156.13045,124.157541 1160.62266,126.371094 C1165.11487,128.584646 1170.12784,129.691406 1175.66172,129.691406 C1181.97686,129.691406 1185.13438,127.380231 1185.13438,122.757812 C1185.13438,120.739573 1184.38569,119.258468 1182.88828,118.314453 C1181.39088,117.370438 1177.25681,115.694022 1170.48594,113.285156 C1165.47289,111.592439 1161.59923,109.867196 1158.86485,108.109375 C1153.39607,104.528628 1150.66172,98.9297256 1150.66172,91.3125 C1150.66172,81.4817217 1154.14476,73.9622656 1161.11094,68.7539062 C1166.64482,64.6523232 1173.90386,62.6015625 1182.88828,62.6015625 C1192.26333,62.6015625 1200.49892,64.554668 1207.59531,68.4609375 C1209.28803,69.3724004 1210.13438,70.5768154 1210.13438,72.0742188 C1210.13438,72.8554727 1209.54844,74.417957 1208.37656,76.7617188 L1206.32578,80.9609375 C1205.28411,83.0442812 1204.45404,84.3951792 1203.83555,85.0136719 C1203.21706,85.6321646 1202.35443,85.9414062 1201.24766,85.9414062 C1200.66172,85.9414062 1197.6344,84.7369912 1192.16563,82.328125 C1189.88697,81.3515576 1186.8271,80.8632812 1182.98594,80.8632812 C1180.05624,80.8632812 1177.72879,81.4654888 1176.00352,82.6699219 C1174.27825,83.874355 1173.41563,85.485667 1173.41563,87.5039062 C1173.41563,89.6523545 1174.19687,91.1660112 1175.75938,92.0449219 C1177.32188,92.9238325 1182.00934,94.5351445 1189.82188,96.8789062 C1196.98337,99.0273545 1202.01262,101.761702 1204.90977,105.082031 C1207.80692,108.40236 1209.25547,113.122365 1209.25547,119.242188 C1209.25547,128.942757 1205.96774,136.429661 1199.39219,141.703125 C1193.66299,146.325544 1186.07843,148.636719 1176.63828,148.636719 C1171.82055,148.636719 1166.61227,148.018235 1161.01328,146.78125 C1155.4143,145.544265 1150.8896,144.014332 1147.43906,142.191406 C1145.87656,141.345048 1145.09531,140.173185 1145.09531,138.675781 C1145.09531,138.024736 1145.45338,136.592459 1146.16953,134.378906 L1146.16953,134.378906 Z M1241.73906,111.039062 C1242.39011,115.856795 1243.56197,119.307281 1245.25469,121.390625 C1248.44481,125.427104 1253.29502,127.445312 1259.80547,127.445312 C1263.90705,127.445312 1268.20389,126.045587 1272.6961,123.246094 C1273.60756,122.660153 1274.48646,122.367188 1275.33281,122.367188 C1275.78855,122.367188 1277.15572,122.822912 1279.43438,123.734375 L1288.02813,127.152344 C1290.30678,127.998702 1291.77161,128.731117 1292.42266,129.349609 C1293.0737,129.968102 1293.39922,130.895827 1293.39922,132.132812 C1293.39922,133.69532 1292.19481,135.648426 1289.78594,137.992188 C1282.16871,145.088577 1271.98001,148.636719 1259.21953,148.636719 C1246.19863,148.636719 1235.94483,144.76306 1228.45781,137.015625 C1221.23122,129.593713 1217.61797,119.860737 1217.61797,107.816406 C1217.61797,94.0793584 1222.11011,82.979209 1231.09453,74.515625 C1239.55812,66.572877 1250.00723,62.6015625 1262.44219,62.6015625 C1274.48652,62.6015625 1283.94281,66.2473594 1290.81133,73.5390625 C1297.67985,80.8307656 1301.11406,90.9218105 1301.11406,103.8125 C1301.11406,107.067725 1300.72344,109.085934 1299.94219,109.867188 C1299.16094,110.648441 1297.14273,111.039062 1293.8875,111.039062 L1241.73906,111.039062 Z M1279.04375,94.5351562 C1278.00208,85.4205273 1273.02166,80.8632812 1264.10235,80.8632812 C1259.34972,80.8632812 1255.2482,82.0514204 1251.79766,84.4277344 C1248.34712,86.8040483 1245.80808,90.1731553 1244.18047,94.5351562 L1279.04375,94.5351562 Z M1305.96094,134.378906 L1307.71875,128.714844 C1308.4349,126.436187 1309.10221,124.92253 1309.72071,124.173828 C1310.3392,123.425126 1311.26692,123.050781 1312.50391,123.050781 C1313.28516,123.050781 1315.92185,124.157541 1320.41406,126.371094 C1324.90627,128.584646 1329.91925,129.691406 1335.45313,129.691406 C1341.76826,129.691406 1344.92578,127.380231 1344.92578,122.757812 C1344.92578,120.739573 1344.17709,119.258468 1342.67969,118.314453 C1341.18229,117.370438 1337.04821,115.694022 1330.27735,113.285156 C1325.2643,111.592439 1321.39064,109.867196 1318.65625,108.109375 C1313.18747,104.528628 1310.45313,98.9297256 1310.45313,91.3125 C1310.45313,81.4817217 1313.93616,73.9622656 1320.90235,68.7539062 C1326.43623,64.6523232 1333.69527,62.6015625 1342.67969,62.6015625 C1352.05474,62.6015625 1360.29033,64.554668 1367.38672,68.4609375 C1369.07944,69.3724004 1369.92578,70.5768154 1369.92578,72.0742188 C1369.92578,72.8554727 1369.33985,74.417957 1368.16797,76.7617188 L1366.11719,80.9609375 C1365.07552,83.0442812 1364.24545,84.3951792 1363.62696,85.0136719 C1363.00846,85.6321646 1362.14584,85.9414062 1361.03906,85.9414062 C1360.45312,85.9414062 1357.42581,84.7369912 1351.95703,82.328125 C1349.67838,81.3515576 1346.61851,80.8632812 1342.77735,80.8632812 C1339.84764,80.8632812 1337.52019,81.4654888 1335.79492,82.6699219 C1334.06965,83.874355 1333.20703,85.485667 1333.20703,87.5039062 C1333.20703,89.6523545 1333.98828,91.1660112 1335.55078,92.0449219 C1337.11329,92.9238325 1341.80074,94.5351445 1349.61328,96.8789062 C1356.77478,99.0273545 1361.80402,101.761702 1364.70117,105.082031 C1367.59832,108.40236 1369.04688,113.122365 1369.04688,119.242188 C1369.04688,128.942757 1365.75915,136.429661 1359.1836,141.703125 C1353.4544,146.325544 1345.86984,148.636719 1336.42969,148.636719 C1331.61196,148.636719 1326.40368,148.018235 1320.80469,146.78125 C1315.2057,145.544265 1310.68101,144.014332 1307.23047,142.191406 C1305.66796,141.345048 1304.88672,140.173185 1304.88672,138.675781 C1304.88672,138.024736 1305.24479,136.592459 1305.96094,134.378906 L1305.96094,134.378906 Z" id="Github-Releases" fill="#4A4A4A" sketch:type="MSShapeGroup"></path>
        </g>
    </g>
</svg>